<?xml version="1.0" encoding="UTF-8"?><svg xmlns="http://www.w3.org/2000/svg" xmlns:xlink="http://www.w3.org/1999/xlink" contentStyleType="text/css" height="412px" preserveAspectRatio="none" style="width:773px;height:412px;background:#FFFFFF;" version="1.1" viewBox="0 0 773 412" width="773px" zoomAndPan="magnify">
    <defs>
        <filter height="300%" id="fwaq4ocj9co00" width="300%" x="-1" y="-1">
            <feGaussianBlur result="blurOut" stdDeviation="2.0"/>
            <feColorMatrix in="blurOut" result="blurOut2" type="matrix" values="0 0 0 0 0 0 0 0 0 0 0 0 0 0 0 0 0 0 .4 0"/>
            <feOffset dx="4.0" dy="4.0" in="blurOut2" result="blurOut3"/>
            <feBlend in="SourceGraphic" in2="blurOut3" mode="normal"/>
        </filter>
    </defs>
    <g>
        <!--entity User-->
        <g id="elem_User">
            <ellipse cx="351.5" cy="121" fill="#FEFECE" filter="url(#fwaq4ocj9co00)" rx="8" ry="8" style="stroke:#A80036;stroke-width:2.0;"/>
            <path d="M351.5,129 L351.5,156 M338.5,137 L364.5,137 M351.5,156 L338.5,171 M351.5,156 L364.5,171 " fill="none" filter="url(#fwaq4ocj9co00)" style="stroke:#A80036;stroke-width:2.0;"/>
            <text fill="#000000" font-family="sans-serif" font-size="14" lengthAdjust="spacing" textLength="31" x="336" y="191.5352">User</text>
        </g>
        <g id="elem_1 - List media">
            <ellipse cx="454.699" cy="28.4398" fill="#FEFECE" filter="url(#fwaq4ocj9co00)" rx="70.199" ry="16.4398" style="stroke:#A80036;stroke-width:1.0;"/>
            <text fill="#000000" font-family="sans-serif" font-size="14" lengthAdjust="spacing" textLength="94" x="406.0115" y="32.1647">1 - List media</text>
        </g>
        <g id="elem_2 - Search for a medium">
            <ellipse cx="247.5363" cy="28.7073" fill="#FEFECE" filter="url(#fwaq4ocj9co00)" rx="101.5363" ry="22.7073" style="stroke:#A80036;stroke-width:1.0;"/>
            <text fill="#000000" font-family="sans-serif" font-size="14" lengthAdjust="spacing" textLength="167" x="164.0363" y="31.9983">2 - Search for a medium</text>
        </g>
        <g id="elem_3 - Add new book">
            <ellipse cx="218.5182" cy="152.4036" fill="#FEFECE" filter="url(#fwaq4ocj9co00)" rx="82.5182" ry="18.9036" style="stroke:#A80036;stroke-width:1.0;"/>
            <text fill="#000000" font-family="sans-serif" font-size="14" lengthAdjust="spacing" textLength="124" x="156.5182" y="155.6947">3 - Add new book</text>
        </g>
        <g id="elem_4 - Add new disk">
            <ellipse cx="351.5467" cy="272.3093" fill="#FEFECE" filter="url(#fwaq4ocj9co00)" rx="79.5467" ry="18.3093" style="stroke:#A80036;stroke-width:1.0;"/>
            <text fill="#000000" font-family="sans-serif" font-size="14" lengthAdjust="spacing" textLength="117" x="293.0467" y="275.6004">4 - Add new disk</text>
        </g>
        <g id="elem_4-1 - Add new data disk">
            <ellipse cx="111.4906" cy="374.2981" fill="#FEFECE" filter="url(#fwaq4ocj9co00)" rx="101.9906" ry="22.7981" style="stroke:#A80036;stroke-width:1.0;"/>
            <text fill="#000000" font-family="sans-serif" font-size="14" lengthAdjust="spacing" textLength="168" x="27.4906" y="377.5891">4-1 - Add new data disk</text>
        </g>
        <g id="elem_4-2 - Add new Music CD">
            <ellipse cx="351.4454" cy="374.3891" fill="#FEFECE" filter="url(#fwaq4ocj9co00)" rx="102.4454" ry="22.8891" style="stroke:#A80036;stroke-width:1.0;"/>
            <text fill="#000000" font-family="sans-serif" font-size="14" lengthAdjust="spacing" textLength="169" x="266.9454" y="377.6801">4-2 - Add new Music CD</text>
        </g>
        <g id="elem_4-3 - Add new Video DVD">
            <ellipse cx="595.5575" cy="374.7115" fill="#FEFECE" filter="url(#fwaq4ocj9co00)" rx="106.5575" ry="23.7115" style="stroke:#A80036;stroke-width:1.0;"/>
            <text fill="#000000" font-family="sans-serif" font-size="14" lengthAdjust="spacing" textLength="178" x="506.5575" y="378.0025">4-3 - Add new Video DVD</text>
        </g>
        <g id="elem_5 - Edit medium">
            <ellipse cx="682.5365" cy="152.3073" fill="#FEFECE" filter="url(#fwaq4ocj9co00)" rx="77.0365" ry="17.8073" style="stroke:#A80036;stroke-width:1.0;"/>
            <text fill="#000000" font-family="sans-serif" font-size="14" lengthAdjust="spacing" textLength="111" x="627.0365" y="155.5983">5 - Edit medium</text>
        </g>
        <g id="elem_6 - Delete medium">
            <ellipse cx="486.7351" cy="152.747" fill="#FEFECE" filter="url(#fwaq4ocj9co00)" rx="84.2351" ry="19.247" style="stroke:#A80036;stroke-width:1.0;"/>
            <text fill="#000000" font-family="sans-serif" font-size="14" lengthAdjust="spacing" textLength="128" x="422.7351" y="156.038">6 - Delete medium</text>
        </g>
        <g id="elem_0 - Exit">
            <ellipse cx="53.6104" cy="152.6754" fill="#FEFECE" filter="url(#fwaq4ocj9co00)" rx="47.6104" ry="14.6754" style="stroke:#A80036;stroke-width:1.0;"/>
            <text fill="#000000" font-family="sans-serif" font-size="14" lengthAdjust="spacing" textLength="51" x="26.4389" y="156.4038">0 - Exit</text>
        </g>
        <!--reverse link 1 - List media to User-->
        <g id="link_1 - List media_User">
            <path d="M437.13,49.97 C423.16,66.44 403.04,90.19 385.5,111 C379.58,118.02 373.1,125.73 367.4,132.53 " fill="none" id="1 - List media-backto-User" style="stroke:#A80036;stroke-width:1.0;"/>
            <polygon fill="#A80036" points="440.27,46.26,431.3851,50.5094,437.0243,50.0633,437.4704,55.7026,440.27,46.26" style="stroke:#A80036;stroke-width:1.0;"/>
        </g>
        <!--reverse link 2 - Search for a medium to User-->
        <g id="link_2 - Search for a medium_User">
            <path d="M270.58,55.55 C284.58,71.46 302.72,92.27 318.5,111 C324.11,117.66 330.15,125.02 335.52,131.62 " fill="none" id="2 - Search for a medium-backto-User" style="stroke:#A80036;stroke-width:1.0;"/>
            <polygon fill="#A80036" points="267.38,51.92,270.3341,61.3154,270.6876,55.6696,276.3334,56.0232,267.38,51.92" style="stroke:#A80036;stroke-width:1.0;"/>
        </g>
        <!--reverse link 3 - Add new book to User-->
        <g id="link_3 - Add new book_User">
            <path d="M307.83,152.5 C317.16,152.5 326.5,152.5 335.83,152.5 " fill="none" id="3 - Add new book-backto-User" style="stroke:#A80036;stroke-width:1.0;"/>
            <polygon fill="#A80036" points="302.88,152.5,311.88,156.5,307.88,152.5,311.88,148.5,302.88,152.5" style="stroke:#A80036;stroke-width:1.0;"/>
        </g>
        <!--link User to 4 - Add new disk-->
        <g id="link_User_4 - Add new disk">
            <path d="M351.5,194.44 C351.5,212.15 351.5,232.25 351.5,247.49 " fill="none" id="User-to-4 - Add new disk" style="stroke:#A80036;stroke-width:1.0;"/>
            <polygon fill="#A80036" points="351.5,252.18,355.5,243.18,351.5,247.18,347.5,243.18,351.5,252.18" style="stroke:#A80036;stroke-width:1.0;"/>
        </g>
        <!--link 4 - Add new disk to 4-1 - Add new data disk-->
        <g id="link_4 - Add new disk_4-1 - Add new data disk">
            <path d="M313.74,289.24 C273.69,305.92 210.09,332.42 164.92,351.24 " fill="none" id="4 - Add new disk-to-4-1 - Add new data disk" style="stroke:#A80036;stroke-width:1.0;stroke-dasharray:7.0,7.0;"/>
            <polygon fill="#A80036" points="160.35,353.15,170.1964,353.37,164.9633,351.2219,167.1114,345.9887,160.35,353.15" style="stroke:#A80036;stroke-width:1.0;"/>
        </g>
        <!--link 4 - Add new disk to 4-2 - Add new Music CD-->
        <g id="link_4 - Add new disk_4-2 - Add new Music CD">
            <path d="M351.5,291.38 C351.5,306.29 351.5,327.81 351.5,345.08 " fill="none" id="4 - Add new disk-to-4-2 - Add new Music CD" style="stroke:#A80036;stroke-width:1.0;stroke-dasharray:7.0,7.0;"/>
            <polygon fill="#A80036" points="351.5,349.71,355.5,340.71,351.5,344.71,347.5,340.71,351.5,349.71" style="stroke:#A80036;stroke-width:1.0;"/>
        </g>
        <!--link 4 - Add new disk to 4-3 - Add new Video DVD-->
        <g id="link_4 - Add new disk_4-3 - Add new Video DVD">
            <path d="M389.62,289.12 C430.11,305.72 494.49,332.1 540.47,350.95 " fill="none" id="4 - Add new disk-to-4-3 - Add new Video DVD" style="stroke:#A80036;stroke-width:1.0;stroke-dasharray:7.0,7.0;"/>
            <polygon fill="#A80036" points="544.87,352.75,538.0632,345.6319,540.2445,350.8513,535.0252,353.0327,544.87,352.75" style="stroke:#A80036;stroke-width:1.0;"/>
        </g>
        <!--link User to 5 - Edit medium-->
        <g id="link_User_5 - Edit medium">
            <path d="M367.35,117.87 C375.78,103.73 387.61,88.88 403,81 C469.46,46.97 499.35,60 571,81 C604.1,90.7 636.68,113.57 658,130.86 " fill="none" id="User-to-5 - Edit medium" style="stroke:#A80036;stroke-width:1.0;"/>
            <polygon fill="#A80036" points="661.73,133.93,657.322,125.1226,657.8691,130.753,652.2388,131.3,661.73,133.93" style="stroke:#A80036;stroke-width:1.0;"/>
        </g>
        <!--link User to 6 - Delete medium-->
        <g id="link_User_6 - Delete medium">
            <path d="M367.32,152.5 C376.87,152.5 386.41,152.5 395.96,152.5 " fill="none" id="User-to-6 - Delete medium" style="stroke:#A80036;stroke-width:1.0;"/>
            <polygon fill="#A80036" points="400.72,152.5,391.72,148.5,395.72,152.5,391.72,156.5,400.72,152.5" style="stroke:#A80036;stroke-width:1.0;"/>
        </g>
        <!--reverse link 0 - Exit to User-->
        <g id="link_0 - Exit_User">
            <path d="M68.4,133.43 C83.34,116 108.08,91.41 136,81 C204.71,55.37 235.88,47.27 301,81 C315.98,88.76 327.46,103.23 335.67,117.14 " fill="none" id="0 - Exit-backto-User" style="stroke:#A80036;stroke-width:1.0;"/>
            <polygon fill="#A80036" points="65.43,136.98,74.2804,132.6591,68.645,133.1506,68.1534,127.5152,65.43,136.98" style="stroke:#A80036;stroke-width:1.0;"/>
        </g>
        <!--SRC=[ZT0z3y8W483XlR_YHZlGsFencXXnqydO7SlLNlg10PhwyuKcDQWnklAyHmvCJHrePJ2ApWOriFx6DZ1BWS61Z8KM9OdunJ9d9nIwgA1K6iJOzEqKDLXQdorSjfKIEXpWebGzkLH3vtqPk2JZ_FC84bydlcPfYCAAluQo08-zeG9s_DTCk7XE4XNmd4_RQxfMu_DMhjfBic-lV_hQESS6BNxvdxc_u4usZXu0]-->
    </g>
</svg>
