<?xml version="1.0" encoding="UTF-8"?><svg xmlns="http://www.w3.org/2000/svg" xmlns:xlink="http://www.w3.org/1999/xlink" contentScriptType="application/ecmascript" contentStyleType="text/css" height="414px" preserveAspectRatio="none" style="width:626px;height:414px;" version="1.1" viewBox="0 0 626 414" width="626px" zoomAndPan="magnify">
    <defs>
        <filter height="300%" id="fnw0l1o8jdlk9" width="300%" x="-1" y="-1">
            <feGaussianBlur result="blurOut" stdDeviation="2.0"/>
            <feColorMatrix in="blurOut" result="blurOut2" type="matrix" values="0 0 0 0 0 0 0 0 0 0 0 0 0 0 0 0 0 0 .4 0"/>
            <feOffset dx="4.0" dy="4.0" in="blurOut2" result="blurOut3"/>
            <feBlend in="SourceGraphic" in2="blurOut3" mode="normal"/>
        </filter>
    </defs>
    <g>
        <!--MD5=[f375b3d0fae4d15774812e930c824519]
class Genre-->
        <rect codeLine="1" fill="#FEFECE" filter="url(#fnw0l1o8jdlk9)" height="60.9551" id="Genre" style="stroke:#A80036;stroke-width:1.5;" width="605" x="7" y="340"/>
        <ellipse cx="287.75" cy="356" fill="#EB937F" rx="11" ry="11" style="stroke:#A80036;stroke-width:1.0;"/>
        <path d="M291.3643,362.5 L283.6445,362.5 L283.6445,350.1069 L291.3643,350.1069 L291.3643,352.2651 L286.0933,352.2651 L286.0933,354.938 L290.8662,354.938 L290.8662,357.0962 L286.0933,357.0962 L286.0933,360.3418 L291.3643,360.3418 Z " fill="#000000"/>
        <text fill="#000000" font-family="sans-serif" font-size="12" lengthAdjust="spacing" textLength="35" x="308.25" y="360.5352">Genre</text>
        <line style="stroke:#A80036;stroke-width:1.5;" x1="8" x2="611" y1="372" y2="372"/>
        <text fill="#000000" font-family="sans-serif" font-size="11" lengthAdjust="spacing" textLength="593" x="13" y="386.6348">UNCATEGORIZED, ACTION, COMEDY, DOCUMENTARY, DRAMA, FANTASY, HORROR, ROMANCE, SCIFI, THRILLER;</text>
        <line style="stroke:#A80036;stroke-width:1.5;" x1="8" x2="611" y1="392.9551" y2="392.9551"/>
        <!--MD5=[070063abfe7a0abdf9165b4cfe9676cf]
class Disk-->
        <rect codeLine="5" fill="#FEFECE" filter="url(#fnw0l1o8jdlk9)" height="48" id="Disk" style="stroke:#A80036;stroke-width:1.5;" width="57" x="281" y="7"/>
        <ellipse cx="296" cy="23" fill="#ADD1B2" rx="11" ry="11" style="stroke:#A80036;stroke-width:1.0;"/>
        <path d="M298.4731,29.1431 Q297.8921,29.4419 297.2529,29.5913 Q296.6138,29.7407 295.9082,29.7407 Q293.4014,29.7407 292.0815,28.0889 Q290.7617,26.437 290.7617,23.3159 Q290.7617,20.1865 292.0815,18.5347 Q293.4014,16.8828 295.9082,16.8828 Q296.6138,16.8828 297.2612,17.0322 Q297.9087,17.1816 298.4731,17.4805 L298.4731,20.2031 Q297.8423,19.6221 297.2488,19.3523 Q296.6553,19.0825 296.0244,19.0825 Q294.6797,19.0825 293.9949,20.1492 Q293.3101,21.2158 293.3101,23.3159 Q293.3101,25.4077 293.9949,26.4744 Q294.6797,27.541 296.0244,27.541 Q296.6553,27.541 297.2488,27.2712 Q297.8423,27.0015 298.4731,26.4204 Z " fill="#000000"/>
        <text fill="#000000" font-family="sans-serif" font-size="12" lengthAdjust="spacing" textLength="25" x="310" y="27.5352">Disk</text>
        <line style="stroke:#A80036;stroke-width:1.5;" x1="282" x2="337" y1="39" y2="39"/>
        <line style="stroke:#A80036;stroke-width:1.5;" x1="282" x2="337" y1="47" y2="47"/>
        <!--MD5=[6d439a513acee906c4f9a2dd4f629010]
class DVD-->
        <rect codeLine="7" fill="#FEFECE" filter="url(#fnw0l1o8jdlk9)" height="164.5957" id="DVD" style="stroke:#A80036;stroke-width:1.5;" width="221" x="199" y="115"/>
        <ellipse cx="292.25" cy="131" fill="#ADD1B2" rx="11" ry="11" style="stroke:#A80036;stroke-width:1.0;"/>
        <path d="M294.7231,137.1431 Q294.1421,137.4419 293.5029,137.5913 Q292.8638,137.7407 292.1582,137.7407 Q289.6514,137.7407 288.3315,136.0889 Q287.0117,134.437 287.0117,131.3159 Q287.0117,128.1865 288.3315,126.5347 Q289.6514,124.8828 292.1582,124.8828 Q292.8638,124.8828 293.5112,125.0322 Q294.1587,125.1816 294.7231,125.4805 L294.7231,128.2031 Q294.0923,127.6221 293.4988,127.3523 Q292.9053,127.0825 292.2744,127.0825 Q290.9297,127.0825 290.2449,128.1492 Q289.5601,129.2158 289.5601,131.3159 Q289.5601,133.4077 290.2449,134.4744 Q290.9297,135.541 292.2744,135.541 Q292.9053,135.541 293.4988,135.2712 Q294.0923,135.0015 294.7231,134.4204 Z " fill="#000000"/>
        <text fill="#000000" font-family="sans-serif" font-size="12" lengthAdjust="spacing" textLength="26" x="312.75" y="135.5352">DVD</text>
        <line style="stroke:#A80036;stroke-width:1.5;" x1="200" x2="419" y1="147" y2="147"/>
        <rect fill="none" height="6" style="stroke:#C82930;stroke-width:1.0;" width="6" x="207" y="155"/>
        <text fill="#000000" font-family="sans-serif" font-size="11" lengthAdjust="spacing" textLength="72" x="219" y="161.6348">genre : Genre</text>
        <rect fill="none" height="6" style="stroke:#C82930;stroke-width:1.0;" width="6" x="207" y="167.9551"/>
        <text fill="#000000" font-family="sans-serif" font-size="11" lengthAdjust="spacing" textLength="102" x="219" y="174.5898">length : int {0-360}</text>
        <line style="stroke:#A80036;stroke-width:1.5;" x1="200" x2="419" y1="180.9102" y2="180.9102"/>
        <ellipse cx="210" cy="191.9102" fill="#84BE84" rx="3" ry="3" style="stroke:#038048;stroke-width:1.0;"/>
        <text fill="#000000" font-family="sans-serif" font-size="11" lengthAdjust="spacing" textLength="92" x="219" y="195.5449">Genre getGenre()</text>
        <ellipse cx="210" cy="204.8652" fill="#84BE84" rx="3" ry="3" style="stroke:#038048;stroke-width:1.0;"/>
        <text fill="#000000" font-family="sans-serif" font-size="11" lengthAdjust="spacing" textLength="137" x="219" y="208.5">void setGenre(Genre gen)</text>
        <ellipse cx="210" cy="217.8203" fill="#84BE84" rx="3" ry="3" style="stroke:#038048;stroke-width:1.0;"/>
        <text fill="#000000" font-family="sans-serif" font-size="11" lengthAdjust="spacing" textLength="79" x="219" y="221.4551">int getLength()</text>
        <ellipse cx="210" cy="230.7754" fill="#84BE84" rx="3" ry="3" style="stroke:#038048;stroke-width:1.0;"/>
        <text fill="#000000" font-family="sans-serif" font-size="11" lengthAdjust="spacing" textLength="120" x="219" y="234.4102">void setLength(int len)</text>
        <ellipse cx="210" cy="243.7305" fill="#84BE84" rx="3" ry="3" style="stroke:#038048;stroke-width:1.0;"/>
        <text fill="#000000" font-family="sans-serif" font-size="11" lengthAdjust="spacing" textLength="195" x="219" y="247.3652">void setPublicationYear(int pubYear)</text>
        <ellipse cx="210" cy="256.6855" fill="#84BE84" rx="3" ry="3" style="stroke:#038048;stroke-width:1.0;"/>
        <text fill="#000000" font-family="sans-serif" font-size="11" lengthAdjust="spacing" textLength="115" x="219" y="260.3203">String toShortString()</text>
        <ellipse cx="210" cy="269.6406" fill="#84BE84" rx="3" ry="3" style="stroke:#038048;stroke-width:1.0;"/>
        <text fill="#000000" font-family="sans-serif" font-size="11" lengthAdjust="spacing" textLength="86" x="219" y="273.2754">String toString()</text>
        <path d="M455.5,180 L455.5,188.6553 L321,170.4326 L455.5,196.6553 L455.5,205.3105 A0,0 0 0 0 455.5,205.3105 L547.5,205.3105 A0,0 0 0 0 547.5,205.3105 L547.5,190 L537.5,180 L455.5,180 A0,0 0 0 0 455.5,180 " fill="#FBFB77" filter="url(#fnw0l1o8jdlk9)" style="stroke:#A80036;stroke-width:1.0;"/>
        <path d="M537.5,180 L537.5,190 L547.5,190 L537.5,180 " fill="#FBFB77" style="stroke:#A80036;stroke-width:1.0;"/>
        <text fill="#000000" font-family="sans-serif" font-size="13" lengthAdjust="spacing" textLength="67" x="461.5" y="197.5684">in minutes</text>
        <!--MD5=[336bbdf7a203148284e07e96d6c083e3]
link DVD to DVD$$$RIGHT-->
        <!--MD5=[dbf3acdbae9e7b151ea9ddd18123f089]
link DVD to Genre-->
        <path codeLine="23" d="M309.5,294.01 C309.5,294.01 309.5,316.13 309.5,325.69 " fill="none" id="DVD-Genre" style="stroke:#A80036;stroke-width:1.0;"/>
        <polygon fill="#A80036" points="309.5,338.35,313.5,329.35,309.5,333.35,305.5,329.35,309.5,338.35" style="stroke:#A80036;stroke-width:1.0;"/>
        <line style="stroke:#A80036;stroke-width:1.0;" x1="309.5" x2="309.5" y1="333.35" y2="325.35"/>
        <polygon fill="#A80036" points="309.5,282.01,305.5,288.01,309.5,294.01,313.5,288.01,309.5,282.01" style="stroke:#A80036;stroke-width:1.0;"/>
        <!--MD5=[66dcda1844d34a241fd661e808c01d9b]
reverse link Disk to DVD-->
        <path codeLine="24" d="M309.5,76.59 C309.5,88.41 309.5,101.56 309.5,114.7 " fill="none" id="Disk-backto-DVD" style="stroke:#A80036;stroke-width:1.0;"/>
        <polygon fill="none" points="302.5,76.73,309.5,56.73,316.5,76.73,302.5,76.73" style="stroke:#A80036;stroke-width:1.0;"/>
        <!--MD5=[93b885ca74b17d5db7f441541ec70a52]
@startuml
enum Genre {
    UNCATEGORIZED, ACTION, COMEDY, DOCUMENTARY, DRAMA, FANTASY, HORROR, ROMANCE, SCIFI, THRILLER;
}

class Disk

class DVD {
    - genre : Genre
    - length : int {0-360}
    + Genre getGenre()
    + void setGenre(Genre gen)
    + int getLength()
    + void setLength(int len)
    + void setPublicationYear(int pubYear)
    + String toShortString()
    + String toString()
}

note right of DVD::length 
   in minutes 
end note

DVD *- -> Genre
DVD -up-|> Disk
@enduml

PlantUML version 1.2021.3(Mon Mar 22 17:53:19 CET 2021)
(GPL source distribution)
Java Runtime: Java(TM) SE Runtime Environment
JVM: Java HotSpot(TM) 64-Bit Server VM
Default Encoding: UTF-8
Language: en
Country: GR
-->
    </g>
</svg>
