<svg xmlns="http://www.w3.org/2000/svg" viewBox="249 328 130 140"><path fill="#fff" d="M282.312 460.439c4.968-.792 16.344-8.64 19.368-10.008 3.024-1.296 14.976-6.335 18.648-6.335s13.68 4.68 16.056 8.352c2.305 3.672 4.32 10.655 9.36 10.368 4.968-.36 9.648-15.696 9.648-19.729.0-4.031-1.944-16.344-3.961-18.72-2.016-2.304-24.048-33.336-37.8-32.976-13.608.288-30.312 10.944-32.688 20.592-2.304 9.72-4.32 23.399-4.32 29.736C276.624 448.128 280.296 460.8 282.312 460.439z"/><radialGradient id="nose" cx="320" cy="388.0005" r="35.7701" gradientUnits="userSpaceOnUse"><stop offset="0" style="stop-color:#FCCAB7"/><stop offset=".1716" style="stop-color:#F89B8F"/><stop offset=".3633" style="stop-color:#F46E69"/><stop offset=".5476" style="stop-color:#F14A4B"/><stop offset=".7199" style="stop-color:#EF3136"/><stop offset=".8756" style="stop-color:#ED2129"/><stop offset="1" style="stop-color:#ED1C24"/></radialGradient><path fill="url(#nose)" d="M305.352 414.647c4.32 6.48 21.671 10.08 32.041 4.393 10.367-5.688 19.367-23.688 13.031-32.688s-28.729-13.68-38.088-4.68C303.048 390.672 299.016 405.288 305.352 414.647z"/><path d="M320.903 402.265c-1.584 1.296-11.808 5.688-7.631 9.431 4.968 4.465 12.527 2.161 16.919-1.367 1.729.0 2.161 1.296 2.305 2.232-3.815 2.016-5.904 5.903-5.256 8.424 2.592 9.072 9.648 13.104 19.296 13.104 2.592.0 6.192-1.656 6.769-3.096 1.728.288 5.327-.576 6.407-2.736 3.312.864 13.681 4.104 14.399 1.08.577-2.088-3.815-5.472-5.543-6.84-1.729-1.296-11.736-8.208-14.616-9.864-.36-.288-.433 1.08-.217 1.656 1.153.937 12.241 8.928 13.608 10.151 4.032 3.528-4.32 2.017-7.2 1.225.072-1.512-2.231-4.104-4.896-3.456-1.152-5.256-8.641-10.656.359-12.527 6.984-2.232 1.44-8.353-2.52-8.28-2.448.0-6.984-.504-9.216 3.168-.864 1.367-4.32-1.368-4.32-2.304-.432.0-3.96-3.96-4.104-4.033-2.736-1.439-6.048-3.095-9.144-.647C324.288 399.24 322.92 400.681 320.903 402.265z"/><path d="M276.768 439.2c1.08-.36 4.752-.864 6.264-1.368 2.52-.864 3.888-5.328 4.896-8.712 1.008-3.385 1.296-8.929.0-11.809-1.008-2.159-12.096-3.384-18.864-.647-1.152-1.439-3.816-1.729-6.624-.359-3.312-.721-6.984-2.089-7.128-2.809-.288-1.872 8.424-3.6 12.312-4.032 3.96-.504 12.816-2.016 12.456 4.032.504.0 1.152.144 1.584.144.0-6.983 14.976-10.079 19.368-11.52-.72 3.456-.144 9.145 1.656 12.24 1.152 2.159 6.552 10.439 23.184 9.287.72-.863-.576-2.087-.433-3.815-3.815.0-21.456-.072-20.952-15.479.576-16.128 11.808-25.632 25.489-25.561 14.832.072 21.167 5.688 20.376 20.16-.073 2.232 1.728 1.008 3.743 1.008 4.104-12.888-2.304-23.976-21.168-24.624-7.632-14.328-32.976-40.896-48.384-46.584 11.952 19.44 6.264 56.088-1.584 73.656-1.08 2.448-13.032 4.392-17.28 4.968-4.176.576-15.912 3.24-15.912 5.832.0 2.376 10.296 6.84 11.376 7.272.072 4.176 1.152 3.672 4.752 3.672.216 1.439 6.84 6.119 6.84 7.487.216.0.144.937-1.152 1.008-1.296.721-3.672 3.673-2.304 6.841C270.072 441.216 272.088 440.712 276.768 439.2z"/><path d="M275.616 441.144c-.936 8.713.432 20.376 7.632 20.88 6.408.504 9.936-3.6 17.064-8.64 2.592-1.728 10.512-6.479 17.856-6.983 2.305-.145 7.128.072 9.288 1.224 5.112 2.592 10.655 12.24 12.312 14.399 1.728 2.232 3.6 3.672 7.92 3.601 4.247-.072 7.415-9.144 8.136-11.376 1.8-5.616 1.8-16.704-.288-20.376-.36-.647-1.44-2.016-1.872-.288-.576 2.232 1.225 8.063-.072 15.336-.648 3.456-5.04 17.137-9.863 10.512-4.32-5.976-5.688-11.231-14.688-15.696-5.328-2.663-11.952-2.447-17.64-.431-5.329 1.943-16.488 9.071-18.864 10.871-2.376 1.729-8.28 6.049-10.296 3.889-2.952-3.168-3.816-11.448-3.816-15.48C278.424 439.344 275.688 440.424 275.616 441.144z"/><script xmlns=""/></svg>